<?xml version="1.0" standalone="no"?>
<!DOCTYPE svg PUBLIC "-//W3C//DTD SVG 20010904//EN"
 "http://www.w3.org/TR/2001/REC-SVG-20010904/DTD/svg10.dtd">
<svg version="1.0" xmlns="http://www.w3.org/2000/svg"
 width="315.000000pt" height="315.000000pt" viewBox="0 0 315.000000 315.000000"
 preserveAspectRatio="xMidYMid meet">
<metadata>
Created by potrace 1.14, written by Peter Selinger 2001-2017
</metadata>
<g transform="translate(0.000000,315.000000) scale(0.100000,-0.100000)"
fill="#000000" stroke="none">
<path d="M1363 2887 c-60 -30 -83 -47 -83 -61 0 -16 -6 -18 -44 -14 -37 5 -56
-1 -127 -38 -46 -24 -95 -44 -109 -44 -14 -1 -77 -29 -140 -64 -98 -53 -115
-67 -118 -89 -3 -21 -17 -34 -68 -63 l-64 -36 0 -64 0 -64 -84 -42 c-74 -37
-85 -45 -90 -73 -5 -26 -16 -36 -65 -59 l-58 -28 -6 -487 c-4 -267 -7 -588 -7
-713 l0 -228 79 0 c84 0 91 4 91 54 0 12 9 39 19 60 11 21 23 52 26 69 12 63
27 88 55 94 25 4 29 12 40 65 7 33 18 65 25 72 7 6 18 36 25 66 16 70 26 89
53 101 17 7 14 8 -15 4 -21 -3 -90 -3 -154 1 l-116 7 7 206 c5 134 11 209 19
213 13 9 118 10 140 2 14 -5 16 -28 16 -144 l0 -138 67 -72 67 -73 11 44 c7
24 18 55 25 69 7 13 21 58 32 99 10 41 25 82 33 91 8 9 15 28 15 42 0 33 29
118 41 118 5 0 9 13 9 28 0 37 28 118 46 133 8 6 14 24 14 39 0 35 26 121 39
130 6 3 16 33 22 65 6 33 18 73 26 89 15 28 15 28 89 24 l74 -5 0 73 0 73 33
-5 c55 -8 1296 -104 1342 -104 l42 0 7 -70 7 -70 44 0 c74 0 75 -2 75 -96 0
-77 2 -84 20 -84 18 0 20 7 20 74 l0 74 35 6 35 7 0 69 0 69 -57 3 -58 3 -3
50 c-4 76 -10 95 -32 95 -11 0 -20 6 -20 14 0 14 -20 18 -162 31 -58 6 -68 9
-68 26 0 12 -7 19 -20 19 -13 0 -20 7 -20 20 0 16 -7 20 -34 20 -44 0 -66 9
-66 26 0 8 -9 14 -21 14 -12 0 -23 8 -26 20 -3 13 -14 20 -29 20 -17 0 -24 6
-24 20 0 14 -7 20 -24 20 -15 0 -26 7 -29 19 -4 16 -18 20 -102 26 -83 7 -98
10 -102 26 -3 12 -14 19 -29 19 -17 0 -24 6 -24 20 0 17 -7 20 -42 20 -71 0
-88 8 -88 41 0 17 -5 29 -13 29 -10 0 -166 18 -302 34 -33 5 -55 -2 -122 -37z"/>
<path d="M1500 1730 l0 -220 65 0 65 0 0 220 0 220 -65 0 -65 0 0 -220z"/>
<path d="M2286 1698 c4 -117 7 -214 8 -214 0 -1 27 -4 60 -6 l59 -5 -5 209
c-3 114 -7 210 -9 212 -2 2 -30 7 -62 11 l-58 7 7 -214z"/>
<path d="M1770 1133 c0 -32 4 -63 8 -69 4 -7 76 -14 199 -19 l191 -7 -7 34
c-4 18 -6 49 -3 69 l4 36 -47 7 c-26 3 -115 6 -196 6 l-149 0 0 -57z"/>
<path d="M730 729 c-74 -3 -136 -7 -137 -8 -2 0 -3 -64 -3 -141 0 -118 -2
-140 -15 -140 -10 0 -15 -11 -15 -35 0 -33 6 -40 88 -100 158 -117 363 -211
567 -261 427 -103 911 -9 1270 248 l75 53 0 53 0 52 -44 0 c-49 0 -51 3 -55
75 -3 56 -5 59 -32 61 -10 1 -23 2 -29 3 -6 0 -10 31 -10 69 l0 69 -142 6
c-184 9 -1341 6 -1518 -4z m1248 -516 l-3 -78 -62 -3 -63 -3 0 81 0 80 65 0
66 0 -3 -77z"/>
</g>
</svg>
