<svg
  width="223"
  height="86"
  viewBox="0 0 223 86"
  fill="none"
  xmlns="http://www.w3.org/2000/svg"
>
<path
    d="M2.89453 45.4121L4.37109 40.6602H5.53125L2.98242 47.9785C2.58789 49.0332 1.96094 49.5605 1.10156 49.5605L0.896484 49.543L0.492188 49.4668V48.5879L0.785156 48.6113C1.15234 48.6113 1.4375 48.5371 1.64062 48.3887C1.84766 48.2402 2.01758 47.9688 2.15039 47.5742L2.39062 46.9297L0.128906 40.6602H1.3125L2.89453 45.4121ZM9.95508 47H8.86523V39.7754L6.67969 40.5781V39.5938L9.78516 38.4277H9.95508V47Z"
    fill="black"
  />
<path
    d="M101.895 9.41211L103.371 4.66016H104.531L101.982 11.9785C101.588 13.0332 100.961 13.5605 100.102 13.5605L99.8965 13.543L99.4922 13.4668V12.5879L99.7852 12.6113C100.152 12.6113 100.438 12.5371 100.641 12.3887C100.848 12.2402 101.018 11.9688 101.15 11.5742L101.391 10.9297L99.1289 4.66016H100.312L101.895 9.41211ZM110.982 11H105.393V10.2207L108.346 6.93945C108.783 6.44336 109.084 6.04102 109.248 5.73242C109.416 5.41992 109.5 5.09766 109.5 4.76562C109.5 4.32031 109.365 3.95508 109.096 3.66992C108.826 3.38477 108.467 3.24219 108.018 3.24219C107.479 3.24219 107.059 3.39648 106.758 3.70508C106.461 4.00977 106.312 4.43555 106.312 4.98242H105.229C105.229 4.19727 105.48 3.5625 105.984 3.07812C106.492 2.59375 107.17 2.35156 108.018 2.35156C108.811 2.35156 109.438 2.56055 109.898 2.97852C110.359 3.39258 110.59 3.94531 110.59 4.63672C110.59 5.47656 110.055 6.47656 108.984 7.63672L106.699 10.1152H110.982V11Z"
    fill="black"
  />
<path
    d="M102.895 77.4121L104.371 72.6602H105.531L102.982 79.9785C102.588 81.0332 101.961 81.5605 101.102 81.5605L100.896 81.543L100.492 81.4668V80.5879L100.785 80.6113C101.152 80.6113 101.438 80.5371 101.641 80.3887C101.848 80.2402 102.018 79.9688 102.15 79.5742L102.391 78.9297L100.129 72.6602H101.312L102.895 77.4121ZM107.969 74.207H108.783C109.295 74.1992 109.697 74.0645 109.99 73.8027C110.283 73.541 110.43 73.1875 110.43 72.7422C110.43 71.7422 109.932 71.2422 108.936 71.2422C108.467 71.2422 108.092 71.377 107.811 71.6465C107.533 71.9121 107.395 72.2656 107.395 72.707H106.311C106.311 72.0312 106.557 71.4707 107.049 71.0254C107.545 70.5762 108.174 70.3516 108.936 70.3516C109.74 70.3516 110.371 70.5645 110.828 70.9902C111.285 71.416 111.514 72.0078 111.514 72.7656C111.514 73.1367 111.393 73.4961 111.15 73.8438C110.912 74.1914 110.586 74.4512 110.172 74.623C110.641 74.7715 111.002 75.0176 111.256 75.3613C111.514 75.7051 111.643 76.125 111.643 76.6211C111.643 77.3867 111.393 77.9941 110.893 78.4434C110.393 78.8926 109.742 79.1172 108.941 79.1172C108.141 79.1172 107.488 78.9004 106.984 78.4668C106.484 78.0332 106.234 77.4609 106.234 76.75H107.324C107.324 77.1992 107.471 77.5586 107.764 77.8281C108.057 78.0977 108.449 78.2324 108.941 78.2324C109.465 78.2324 109.865 78.0957 110.143 77.8223C110.42 77.5488 110.559 77.1562 110.559 76.6445C110.559 76.1484 110.406 75.7676 110.102 75.502C109.797 75.2363 109.357 75.0996 108.783 75.0918H107.969V74.207Z"
    fill="black"
  />
<path
    d="M212.895 48.4121L214.371 43.6602H215.531L212.982 50.9785C212.588 52.0332 211.961 52.5605 211.102 52.5605L210.896 52.543L210.492 52.4668V51.5879L210.785 51.6113C211.152 51.6113 211.438 51.5371 211.641 51.3887C211.848 51.2402 212.018 50.9688 212.15 50.5742L212.391 49.9297L210.129 43.6602H211.312L212.895 48.4121ZM220.969 47.1348H222.152V48.0195H220.969V50H219.879V48.0195H215.994V47.3809L219.814 41.4688H220.969V47.1348ZM217.225 47.1348H219.879V42.9512L219.75 43.1855L217.225 47.1348Z"
    fill="black"
  />
<path
    d="M15.5519 35.7782C15.4294 36.0257 15.5307 36.3256 15.7782 36.4481L19.8112 38.4443C20.0587 38.5668 20.3587 38.4654 20.4812 38.2179C20.6036 37.9705 20.5023 37.6705 20.2548 37.548L16.6699 35.7737L18.4443 32.1888C18.5668 31.9413 18.4654 31.6413 18.2179 31.5188C17.9705 31.3964 17.6705 31.4977 17.548 31.7452L15.5519 35.7782ZM89.84 10.5263L15.84 35.5263L16.16 36.4737L90.16 11.4737L89.84 10.5263Z"
    fill="black"
  />
<path
    d="M92.449 19.2199C92.5705 18.9719 92.4679 18.6724 92.2199 18.551L88.1787 16.5716C87.9307 16.4501 87.6312 16.5527 87.5097 16.8007C87.3882 17.0487 87.4908 17.3482 87.7388 17.4696L91.331 19.2291L89.5716 22.8213C89.4501 23.0693 89.5527 23.3688 89.8007 23.4903C90.0487 23.6118 90.3482 23.5092 90.4696 23.2612L92.449 19.2199ZM19.162 44.473L92.162 19.473L91.838 18.527L18.838 43.527L19.162 44.473Z"
    fill="black"
  />
<path
    d="M119.775 6.55353C119.528 6.67784 119.429 6.9785 119.554 7.22508L121.579 11.2433C121.704 11.4899 122.004 11.589 122.251 11.4647C122.497 11.3404 122.597 11.0398 122.472 10.7932L120.672 7.22139L124.243 5.42074C124.49 5.29643 124.589 4.99577 124.465 4.74918C124.34 4.5026 124.04 4.40348 123.793 4.52779L119.775 6.55353ZM211.157 36.5251L120.157 6.52514L119.843 7.47486L210.843 37.4749L211.157 36.5251Z"
    fill="black"
  />
<path
    d="M119.565 78.7532C119.429 78.9934 119.513 79.2985 119.753 79.4348L123.667 81.6561C123.907 81.7924 124.212 81.7082 124.348 81.468C124.485 81.2279 124.401 80.9227 124.16 80.7864L120.682 78.812L122.656 75.3332C122.792 75.0931 122.708 74.7879 122.468 74.6516C122.228 74.5153 121.923 74.5995 121.786 74.8396L119.565 78.7532ZM206.867 54.518L119.867 78.518L120.133 79.482L207.133 55.482L206.867 54.518Z"
    fill="black"
  />
<path
    d="M207.433 47.2505C207.571 47.0115 207.489 46.7056 207.251 46.5673L203.356 44.3126C203.117 44.1743 202.811 44.2558 202.673 44.4948C202.535 44.7338 202.616 45.0397 202.855 45.178L206.317 47.1822L204.313 50.6439C204.174 50.8829 204.256 51.1888 204.495 51.3271C204.734 51.4655 205.04 51.3839 205.178 51.1449L207.433 47.2505ZM117.129 71.4831L207.129 47.4831L206.871 46.5169L116.871 70.5169L117.129 71.4831Z"
    fill="black"
  />
<path
    d="M99.2286 75.4447C99.4742 75.3185 99.5709 75.017 99.4447 74.7714L97.3875 70.7692C97.2612 70.5236 96.9598 70.4268 96.7142 70.5531C96.4686 70.6793 96.3718 70.9808 96.4981 71.2264L98.3267 74.7839L94.7692 76.6125C94.5236 76.7388 94.4268 77.0402 94.5531 77.2858C94.6793 77.5314 94.9807 77.6282 95.2263 77.5019L99.2286 75.4447ZM17.8472 49.4761L98.8472 75.4761L99.1528 74.5239L18.1528 48.5239L17.8472 49.4761Z"
    fill="black"
  />
<path
    d="M15.764 58.5592C15.5206 58.6895 15.4289 58.9925 15.5592 59.236L17.6831 63.2032C17.8134 63.4467 18.1164 63.5384 18.3599 63.4081C18.6033 63.2777 18.695 62.9747 18.5647 62.7313L16.6768 59.2048L20.2032 57.3169C20.4467 57.1866 20.5384 56.8836 20.4081 56.6401C20.2777 56.3967 19.9747 56.305 19.7313 56.4353L15.764 58.5592ZM92.1448 81.5214L16.1448 58.5214L15.8552 59.4786L91.8552 82.4786L92.1448 81.5214Z"
    fill="black"
  />
<path
    d="M104.646 67.3536C104.842 67.5488 105.158 67.5488 105.354 67.3536L108.536 64.1716C108.731 63.9763 108.731 63.6597 108.536 63.4645C108.34 63.2692 108.024 63.2692 107.828 63.4645L105 66.2929L102.172 63.4645C101.976 63.2692 101.66 63.2692 101.464 63.4645C101.269 63.6597 101.269 63.9763 101.464 64.1716L104.646 67.3536ZM104.5 18V67H105.5V18H104.5Z"
    fill="black"
  />
</svg>
