<svg
  xmlns="http://www.w3.org/2000/svg"
  width="450"
  height="250"
  xmlns:v="https://vecta.io/nano"
><style
  ><![CDATA[.B{font-size:12px}.C{text-anchor:end}.D{text-anchor:middle}.E{shape-rendering:crispEdges}]]></style><text
    x="440"
    y="173"
    class="B D"
  >x</text><path
    d="M450 179l-3 12h7z"
    transform="rotate(90 450 179)"
    stroke="#000"
    fill="#333"
  /><text x="231" y="14" class="B">y</text><path
    d="M225 0l-3 12h7z"
    stroke="#000"
    fill="#333"
  /><g fill="none" class="E"><path
      d="M308.2 0v250M391.4 0v250M141.8 0v250M58.6 0v250M0 152h450M0 125h450M0 98h450M0 71h450M0 44h450M0 17h450M0 206h450M0 233h450"
      stroke="#ddd"
    /><path
      d="M0 179h450M225 0v250m83.2-68v-6m83.2 6v-6m-249.6 6v-6m-83.2 6v-6M228 152h-6m6-27h-6m6-27h-6m6-27h-6m6-27h-6m6-27h-6m6 189h-6m6 27h-6"
      stroke="#333"
    /></g><text x="308.2" y="195" class="B D">2</text><text
    x="391.4"
    y="195"
    class="B D"
  >4</text><text x="141.8" y="195" class="B D">-2</text><text
    x="58.6"
    y="195"
    class="B D"
  >-4</text><text x="219" y="156" class="B C">1</text><text
    x="219"
    y="129"
    class="B C"
  >2</text><text x="219" y="102" class="B C">3</text><text
    x="219"
    y="75"
    class="B C"
  >4</text><text x="219" y="48" class="B C">5</text><text
    x="219"
    y="21"
    class="B C"
  >6</text><text x="219" y="210" class="B C">-1</text><text
    x="219"
    y="237"
    class="B C"
  >-2</text><path
    vector-effect="non-scaling-stroke"
    d="M17 87.73l.83-7.2.83-8.33.84-9.77.83-11.61.83-14.04.83-17.36.83-22 .84-28.85.83-22.57m13.34 357.8l.03-.4.02-.4.03-.39.03-.4.03-.39.02-.39.03-.38.03-.39.03-.38.03-.38.02-.38.03-.37.03-.38.03-.37.02-.37.03-.36.03-.37.03-.36.02-.36.03-.36.03-.36.03-.35.03-.35.02-.35.03-.35.03-.35.03-.34.02-.34.03-.34h0l.83-9.39.84-8.04.83-6.96.83-6.1.83-5.38.83-4.8.84-4.3.83-3.88.83-3.52.83-3.22.83-2.94.84-2.72.83-2.51.83-2.33.83-2.17.83-2.03.84-1.9.83-1.78.83-1.68.83-1.59.83-1.51.84-1.43.83-1.35.83-1.3.83-1.23.83-1.19.84-1.13.83-1.08.83-1.05.83-1.01.83-.97.84-.93.83-.91.83-.87.83-.85.83-.83.84-.8.83-.78.83-.76.83-.74.83-.73.84-.71.83-.69.83-.68.83-.66.83-.65.84-.65.83-.63.83-.62.83-.61.83-.6.84-.59.83-.59.83-.58.83-.58.83-.57.84-.56.83-.56.83-.56.83-.55.83-.55.84-.54.83-.55.83-.54.83-.54.83-.54.84-.54.83-.54.83-.54.83-.55.83-.54.84-.54.83-.55.83-.55.83-.55.83-.56.84-.56.83-.56.83-.57.83-.58.83-.58.84-.59.83-.6.83-.6.83-.61.83-.62.84-.64.83-.64.83-.65.83-.67.83-.68.84-.7.83-.71.83-.72.83-.75.83-.76.84-.78.83-.81.83-.83.83-.85.83-.88.84-.92.83-.94.83-.97.83-1.01.83-1.06.84-1.09.83-1.14.83-1.19.83-1.24.83-1.31.84-1.37.83-1.44.83-1.51.83-1.61.83-1.69.84-1.81.83-1.92.83-2.05.83-2.19.83-2.36.84-2.54.83-2.75.83-2.99.83-3.26.83-3.57.84-3.95.83-4.37.83-4.88.83-5.49.83-6.22.84-7.12.83-8.23.83-9.64.83-11.44.83-13.82.84-17.05.83-21.57.83-28.19.83-25.2m13.4 357.96l.02-.4.03-.4.03-.4.03-.39.03-.39.02-.39.03-.39.03-.39.03-.38.02-.38.03-.38.03-.38.03-.37.03-.37.02-.37.03-.37.03-.37.03-.36.02-.36.03-.36.03-.36.03-.35.02-.35.03-.36.03-.34.03-.35.03-.35h0l.83-9.51.83-8.13.83-7.04.83-6.16.84-5.44.83-4.83.83-4.34.83-3.91.83-3.55.84-3.24.83-2.97.83-2.73.83-2.53.83-2.34.84-2.18.83-2.04.83-1.91.83-1.79.83-1.69.84-1.6.83-1.51.83-1.44.83-1.36.83-1.3.84-1.24.83-1.18.83-1.14.83-1.09.83-1.05.84-1.01.83-.97.83-.94.83-.91.83-.87.84-.86.83-.82.83-.81.83-.78.83-.76.84-.75.83-.72.83-.71.83-.69.83-.68.84-.67.83-.65.83-.64.83-.64.83-.62.84-.61.83-.6.83-.6.83-.59.83-.58.84-.57.83-.57.83-.57.83-.56.83-.55.84-.55.83-.55.83-.55.83-.55.83-.54.84-.54.83-.54.83-.54h0l.83-.54.83-.54.84-.54.83-.54.83-.55.83-.55.83-.54.84-.56.83-.55.83-.56.83-.57.83-.57.84-.57.83-.58.83-.59.83-.6.83-.6.84-.61.83-.62.83-.64.83-.64.83-.65.84-.67.83-.68.83-.69.83-.71.83-.72.84-.75.83-.76.83-.78.83-.81.83-.82.84-.85.83-.88.83-.91.83-.94.83-.97.84-1.01.83-1.05.83-1.09.83-1.14.83-1.18.84-1.24.83-1.3.83-1.36.83-1.44.83-1.51.84-1.6.83-1.69.83-1.79.83-1.91.83-2.04.84-2.18.83-2.34.83-2.53.83-2.73.83-2.97.84-3.24.83-3.55.83-3.91.83-4.33.83-4.84.84-5.44.83-6.16.83-7.04.83-8.13.83-9.51.84-11.28.83-13.61.83-16.75.83-21.15L285.74-54m13.47 357.72l.03-.4.03-.4.03-.4.03-.39.02-.39.03-.39.03-.39.03-.38.02-.39.03-.37.03-.38.03-.38.02-.37.03-.37.03-.37.03-.37.03-.36.02-.36.03-.36.03-.36.03-.35.02-.36.03-.35.03-.35h0l.83-9.64.83-8.23.84-7.12.83-6.22.83-5.49.83-4.88.83-4.37.84-3.95.83-3.57.83-3.26.83-2.99.83-2.75.84-2.54.83-2.36.83-2.19.83-2.05.83-1.92.84-1.81.83-1.69.83-1.61.83-1.51.83-1.44.84-1.37.83-1.31.83-1.24.83-1.19.83-1.14.84-1.09.83-1.06.83-1.01.83-.97.83-.94.84-.91.83-.89.83-.85.83-.83.83-.81.84-.78.83-.76.83-.75.83-.72.83-.71.84-.7.83-.68.83-.67.83-.65.83-.64.84-.64.83-.62.83-.61.83-.6.83-.6.84-.59.83-.58.83-.58.83-.57.83-.56.84-.56.83-.56.83-.55.83-.55.83-.55.84-.54.83-.54.83-.55.83-.54.83-.54.84-.54.83-.54.83-.54.83-.54.83-.55.84-.54.83-.55.83-.55.83-.56.83-.56.84-.56.83-.57.83-.58.83-.58.83-.58.84-.6.83-.6.83-.61.83-.62.83-.63.84-.65.83-.65.83-.66.83-.68.83-.69.84-.71.83-.73.83-.74.83-.76.83-.78.84-.8.83-.83.83-.85.83-.87.83-.91.84-.93.83-.97.83-1.01.83-1.04.83-1.09.84-1.13.83-1.19.83-1.23.83-1.29.83-1.36.84-1.43.83-1.51.83-1.58.83-1.69.83-1.78.84-1.9.83-2.03.83-2.17.83-2.33.83-2.51.84-2.71.83-2.95.83-3.22.83-3.52.83-3.88.84-4.3.83-4.8.83-5.38.83-6.09.83-6.97.84-8.03.83-9.39.83-11.13.83-13.39.83-16.46.84-20.74.83-26.94.83-30.26m13.53 357.87l.03-.4.03-.4.03-.39.02-.4.03-.39.03-.39.03-.39.03-.38.02-.38.03-.39.03-.37.03-.38.02-.37.03-.37.03-.37.03-.37.03-.37.02-.36.03-.36.03-.36.03-.36.02-.35h0l.84-9.76.83-8.34.83-7.19"
    fill="none"
    stroke="#165a71"
    stroke-width="1.5"
  /></svg>
