<svg
  width="200"
  height="156"
  viewBox="0 0 200 156"
  fill="none"
  xmlns="http://www.w3.org/2000/svg"
>
<path
    d="M193.154 53.4759C193.416 53.3911 193.561 53.1093 193.476 52.8465L192.094 48.5638C192.01 48.301 191.728 48.1567 191.465 48.2415C191.202 48.3262 191.058 48.608 191.143 48.8708L192.371 52.6776L188.564 53.9057C188.301 53.9904 188.157 54.2722 188.241 54.535C188.326 54.7978 188.608 54.9421 188.871 54.8574L193.154 53.4759ZM110.772 11.445L192.772 53.445L193.228 52.555L111.228 10.555L110.772 11.445Z"
    fill="black"
  />
<path
    d="M96.9473 6.97461L98.3535 4.66016H99.6191L97.5449 7.79492L99.6836 11H98.4297L96.9648 8.62695L95.5 11H94.2402L96.3789 7.79492L94.3047 4.66016H95.5586L96.9473 6.97461ZM104.225 11H103.135V3.77539L100.949 4.57812V3.59375L104.055 2.42773H104.225V11Z"
    fill="black"
  />
<path
    d="M189.947 64.9746L191.354 62.6602H192.619L190.545 65.7949L192.684 69H191.43L189.965 66.627L188.5 69H187.24L189.379 65.7949L187.305 62.6602H188.559L189.947 64.9746ZM199.252 69H193.662V68.2207L196.615 64.9395C197.053 64.4434 197.354 64.041 197.518 63.7324C197.686 63.4199 197.77 63.0977 197.77 62.7656C197.77 62.3203 197.635 61.9551 197.365 61.6699C197.096 61.3848 196.736 61.2422 196.287 61.2422C195.748 61.2422 195.328 61.3965 195.027 61.7051C194.73 62.0098 194.582 62.4355 194.582 62.9824H193.498C193.498 62.1973 193.75 61.5625 194.254 61.0781C194.762 60.5938 195.439 60.3516 196.287 60.3516C197.08 60.3516 197.707 60.5605 198.168 60.9785C198.629 61.3926 198.859 61.9453 198.859 62.6367C198.859 63.4766 198.324 64.4766 197.254 65.6367L194.969 68.1152H199.252V69Z"
    fill="black"
  />
<path
    d="M148.947 148.975L150.354 146.66H151.619L149.545 149.795L151.684 153H150.43L148.965 150.627L147.5 153H146.24L148.379 149.795L146.305 146.66H147.559L148.947 148.975ZM154.238 148.207H155.053C155.564 148.199 155.967 148.064 156.26 147.803C156.553 147.541 156.699 147.188 156.699 146.742C156.699 145.742 156.201 145.242 155.205 145.242C154.736 145.242 154.361 145.377 154.08 145.646C153.803 145.912 153.664 146.266 153.664 146.707H152.58C152.58 146.031 152.826 145.471 153.318 145.025C153.814 144.576 154.443 144.352 155.205 144.352C156.01 144.352 156.641 144.564 157.098 144.99C157.555 145.416 157.783 146.008 157.783 146.766C157.783 147.137 157.662 147.496 157.42 147.844C157.182 148.191 156.855 148.451 156.441 148.623C156.91 148.771 157.271 149.018 157.525 149.361C157.783 149.705 157.912 150.125 157.912 150.621C157.912 151.387 157.662 151.994 157.162 152.443C156.662 152.893 156.012 153.117 155.211 153.117C154.41 153.117 153.758 152.9 153.254 152.467C152.754 152.033 152.504 151.461 152.504 150.75H153.594C153.594 151.199 153.74 151.559 154.033 151.828C154.326 152.098 154.719 152.232 155.211 152.232C155.734 152.232 156.135 152.096 156.412 151.822C156.689 151.549 156.828 151.156 156.828 150.645C156.828 150.148 156.676 149.768 156.371 149.502C156.066 149.236 155.627 149.1 155.053 149.092H154.238V148.207Z"
    fill="black"
  />
<path
    d="M48.9473 148.975L50.3535 146.66H51.6191L49.5449 149.795L51.6836 153H50.4297L48.9648 150.627L47.5 153H46.2402L48.3789 149.795L46.3047 146.66H47.5586L48.9473 148.975ZM57.2383 150.135H58.4219V151.02H57.2383V153H56.1484V151.02H52.2637V150.381L56.084 144.469H57.2383V150.135ZM53.4941 150.135H56.1484V145.951L56.0195 146.186L53.4941 150.135Z"
    fill="black"
  />
<path
    d="M2.94727 64.9746L4.35352 62.6602H5.61914L3.54492 65.7949L5.68359 69H4.42969L2.96484 66.627L1.5 69H0.240234L2.37891 65.7949L0.304688 62.6602H1.55859L2.94727 64.9746ZM7.16016 64.7227L7.59375 60.4688H11.9648V61.4707H8.51367L8.25586 63.7969C8.67383 63.5508 9.14844 63.4277 9.67969 63.4277C10.457 63.4277 11.0742 63.6855 11.5312 64.2012C11.9883 64.7129 12.2168 65.4062 12.2168 66.2812C12.2168 67.1602 11.9785 67.8535 11.502 68.3613C11.0293 68.8652 10.3672 69.1172 9.51562 69.1172C8.76172 69.1172 8.14648 68.9082 7.66992 68.4902C7.19336 68.0723 6.92188 67.4941 6.85547 66.7559H7.88086C7.94727 67.2441 8.12109 67.6133 8.40234 67.8633C8.68359 68.1094 9.05469 68.2324 9.51562 68.2324C10.0195 68.2324 10.4141 68.0605 10.6992 67.7168C10.9883 67.373 11.1328 66.8984 11.1328 66.293C11.1328 65.7227 10.9766 65.2656 10.6641 64.9219C10.3555 64.5742 9.94336 64.4004 9.42773 64.4004C8.95508 64.4004 8.58398 64.5039 8.31445 64.7109L8.02734 64.9453L7.16016 64.7227Z"
    fill="black"
  />
<path
    d="M158.52 137.139C158.597 137.405 158.874 137.557 159.139 137.48L163.461 136.226C163.726 136.149 163.879 135.871 163.802 135.606C163.725 135.341 163.447 135.188 163.182 135.265L159.341 136.38L158.226 132.539C158.149 132.274 157.871 132.121 157.606 132.198C157.341 132.275 157.188 132.553 157.265 132.818L158.52 137.139ZM191.562 76.759L158.562 136.759L159.438 137.241L192.438 77.241L191.562 76.759Z"
    fill="black"
  />
<path
    d="M141.354 149.354C141.549 149.158 141.549 148.842 141.354 148.646L138.172 145.464C137.976 145.269 137.66 145.269 137.464 145.464C137.269 145.66 137.269 145.976 137.464 146.172L140.293 149L137.464 151.828C137.269 152.024 137.269 152.34 137.464 152.536C137.66 152.731 137.976 152.731 138.172 152.536L141.354 149.354ZM66 149.5H141V148.5H66V149.5Z"
    fill="black"
  />
<path
    d="M13.1552 76.5247C12.8927 76.439 12.6104 76.5823 12.5247 76.8448L11.1279 81.1225C11.0422 81.385 11.1855 81.6673 11.448 81.753C11.7105 81.8387 11.9928 81.6954 12.0785 81.4329L13.3201 77.6305L17.1225 78.8721C17.385 78.9578 17.6673 78.8145 17.753 78.552C17.8387 78.2895 17.6954 78.0072 17.4329 77.9215L13.1552 76.5247ZM46.4458 141.774L13.4458 76.7737L12.5542 77.2263L45.5542 142.226L46.4458 141.774Z"
    fill="black"
  />
<path
    d="M89.4851 11.1213C89.552 10.8534 89.3892 10.5819 89.1213 10.5149L84.7556 9.42352C84.4877 9.35655 84.2163 9.51943 84.1493 9.78732C84.0823 10.0552 84.2452 10.3267 84.5131 10.3937L88.3937 11.3638L87.4235 15.2444C87.3565 15.5123 87.5194 15.7837 87.7873 15.8507C88.0552 15.9177 88.3267 15.7548 88.3937 15.4869L89.4851 11.1213ZM14.2572 56.4287L89.2572 11.4287L88.7428 10.5713L13.7428 55.5713L14.2572 56.4287Z"
    fill="black"
  />
<path
    d="M19.6464 64.6464C19.4512 64.8417 19.4512 65.1583 19.6464 65.3536L22.8284 68.5355C23.0237 68.7308 23.3403 68.7308 23.5355 68.5355C23.7308 68.3403 23.7308 68.0237 23.5355 67.8284L20.7071 65L23.5355 62.1716C23.7308 61.9763 23.7308 61.6597 23.5355 61.4645C23.3403 61.2692 23.0237 61.2692 22.8284 61.4645L19.6464 64.6464ZM179 64.5L20 64.5L20 65.5L179 65.5L179 64.5Z"
    fill="black"
  />
<path
    d="M145.776 137.447C146.023 137.571 146.324 137.471 146.447 137.224L148.46 133.199C148.583 132.952 148.483 132.651 148.236 132.528C147.989 132.404 147.689 132.504 147.565 132.751L145.776 136.329L142.199 134.54C141.952 134.417 141.651 134.517 141.528 134.764C141.404 135.011 141.504 135.311 141.751 135.435L145.776 137.447ZM105.526 17.1581L145.526 137.158L146.474 136.842L106.474 16.8419L105.526 17.1581Z"
    fill="black"
  />
<path
    d="M99.4505 16.7831C99.3307 16.5343 99.0319 16.4297 98.7831 16.5495L94.7286 18.5017C94.4798 18.6215 94.3752 18.9203 94.495 19.1691C94.6148 19.4179 94.9136 19.5225 95.1624 19.4027L98.7664 17.6674L100.502 21.2714C100.621 21.5202 100.92 21.6248 101.169 21.505C101.418 21.3852 101.522 21.0864 101.403 20.8376L99.4505 16.7831ZM57.4719 137.165L99.4719 17.1652L98.5281 16.8348L56.5281 136.835L57.4719 137.165Z"
    fill="black"
  />
<path
    d="M135.143 134.479C135.408 134.4 135.558 134.122 135.479 133.857L134.193 129.545C134.114 129.28 133.836 129.13 133.571 129.209C133.306 129.287 133.156 129.566 133.235 129.831L134.378 133.664L130.545 134.807C130.28 134.886 130.13 135.164 130.209 135.429C130.287 135.694 130.566 135.844 130.831 135.765L135.143 134.479ZM23.7622 74.4399L134.762 134.44L135.238 133.56L24.2378 73.5601L23.7622 74.4399Z"
    fill="black"
  />
<path
    d="M65.5184 136.866C65.4442 137.132 65.5996 137.407 65.8656 137.482L70.2 138.691C70.466 138.765 70.7418 138.61 70.816 138.344C70.8902 138.078 70.7348 137.802 70.4688 137.728L66.616 136.653L67.6912 132.8C67.7654 132.534 67.61 132.258 67.344 132.184C67.078 132.11 66.8022 132.265 66.728 132.531L65.5184 136.866ZM175.754 74.5644L65.7545 136.564L66.2455 137.436L176.246 75.4356L175.754 74.5644Z"
    fill="black"
  />
</svg>
