<svg xmlns="http://www.w3.org/2000/svg" width="500" height="281" viewBox="0 0 500 281" version="1.1">
	<path d="M 0.246 143.752 L 0 281.004 250.250 280.752 L 500.500 280.500 500.605 143 C 500.662 67.375, 500.376 8.200, 499.969 11.500 C 499.561 14.800, 499.166 72.287, 499.091 139.250 C 499.016 206.213, 498.717 261, 498.426 261 C 496.903 261, 495 253.207, 495 246.966 C 495 239.134, 494.139 236.830, 489.873 233.240 C 488.293 231.910, 487 230.186, 487 229.409 C 487 228.632, 484.829 226.437, 482.175 224.530 C 479.521 222.624, 476.881 220.037, 476.307 218.782 C 474.221 214.220, 467.186 206.453, 463.389 204.520 C 449.252 197.324, 447 195.264, 447 189.531 C 447 185.165, 444.791 181, 442.475 181 C 441.698 181, 439.307 178.637, 437.161 175.750 C 435.015 172.862, 431.351 168.748, 429.019 166.607 C 426.687 164.466, 424.139 161.316, 423.358 159.607 C 418.809 149.662, 415.031 148.105, 403.547 151.443 C 400.602 152.299, 396.815 153, 395.131 153 C 393.447 153, 389.924 153.729, 387.301 154.619 C 377.552 157.929, 371.090 156.693, 370.993 151.500 C 370.935 148.356, 363.476 134.069, 360.138 130.707 C 357.590 128.140, 348.605 125.931, 340.750 125.941 C 337.037 125.946, 334 125.583, 334 125.135 C 334 124.076, 329.424 122, 327.090 122 C 326.092 122, 323.576 120.650, 321.500 119 C 317.383 115.728, 313.286 115.092, 312.332 117.577 C 311.999 118.444, 310.664 119.558, 309.364 120.052 C 307.419 120.791, 307 121.664, 307 124.975 L 307 129 301.750 129.006 C 294.706 129.013, 289.268 130.642, 286.267 133.642 C 283.832 136.078, 283.746 137.028, 285.468 142.500 C 286.040 144.318, 285.293 144.659, 277.267 146.242 C 267.604 148.148, 255.899 146.972, 252.196 143.724 C 248.066 140.102, 237.704 135.688, 233.482 135.752 C 228.651 135.825, 227.062 134.528, 222.762 127 C 218.837 120.131, 207.979 108.343, 201.921 104.376 C 191.835 97.771, 190.378 95.405, 193.479 90.673 C 195.017 88.325, 194.888 83.618, 193.197 80.379 C 192.657 79.346, 191.695 77.375, 191.059 76 C 187.949 69.279, 186.810 67.886, 184.672 68.191 C 181.399 68.659, 178.069 77.731, 178.031 86.290 C 178.009 91.058, 177.404 94.247, 176 97 C 174.900 99.156, 173.997 102.626, 173.994 104.710 C 173.990 106.795, 173.312 109.795, 172.486 111.379 C 171.126 113.988, 171.132 114.135, 172.559 112.951 C 174.855 111.046, 177 106.486, 177 103.510 C 177 102.086, 177.900 99.156, 179 97 C 180.327 94.400, 181 91.106, 181 87.218 C 181 83.994, 181.719 79.246, 182.598 76.667 L 184.195 71.979 185.960 74.239 C 186.931 75.483, 188.029 77.472, 188.401 78.660 C 188.773 79.848, 189.735 81.365, 190.539 82.032 C 192.203 83.414, 192.500 87.573, 191 88.500 C 190.450 88.840, 190.002 91.454, 190.004 94.309 L 190.009 99.500 197.636 105 C 201.832 108.025, 206.098 111.412, 207.118 112.526 C 208.137 113.640, 211.030 116.790, 213.547 119.526 C 217.913 124.272, 223.661 133.827, 225.173 138.851 C 225.797 140.924, 225.622 141.124, 223.691 140.538 C 218.826 139.063, 204.698 138.006, 203.470 139.025 C 202.789 139.590, 197.568 140.099, 191.866 140.156 C 183.025 140.245, 180.470 140.669, 174.500 143.041 C 170.650 144.570, 167.163 145.503, 166.752 145.113 C 165.147 143.591, 169.081 132.607, 172.788 128.264 C 176.614 123.780, 180.886 116.453, 180.959 114.250 C 181.055 111.344, 178.336 113.399, 176.297 117.774 C 175.086 120.373, 172.298 124.525, 170.103 127 C 165.324 132.388, 163.383 140.524, 163.066 156.500 C 162.903 164.721, 162.549 166.767, 161.079 168 C 160.096 168.825, 157.859 171.630, 156.109 174.234 C 152.590 179.468, 147.371 184.724, 144.898 185.523 C 144.017 185.808, 142.030 188.394, 140.482 191.270 C 136.227 199.181, 134.654 200.831, 128.321 204.023 C 118.930 208.758, 116.540 211.092, 117.510 214.577 L 118.324 217.500 118.912 214.763 C 119.500 212.028, 128.757 205, 131.773 205 C 133.729 205, 138.840 199.159, 141.198 194.228 C 142.332 191.857, 145.354 188.297, 147.990 186.228 C 150.602 184.178, 154.710 179.694, 157.120 176.265 C 159.561 172.791, 162.258 170.024, 163.211 170.015 C 166.742 169.984, 167.544 179.695, 165.479 197.500 C 165.086 200.892, 161.585 214.645, 159.759 219.975 C 157.171 227.525, 156.164 228.299, 144.881 231.424 C 141.790 232.280, 138.698 233.659, 138.008 234.490 C 136.187 236.685, 135 236.343, 135 233.622 C 135 230.642, 133.609 229.492, 128.283 228.068 C 125.964 227.448, 123.714 226.312, 123.283 225.544 C 118.197 216.474, 95.855 216.520, 85.037 225.622 C 83.195 227.172, 80.520 228.594, 79.094 228.781 C 72.642 229.628, 66 235.387, 66 240.134 C 66 242.763, 67.614 241.562, 68.161 238.527 C 68.597 236.110, 75.509 232.039, 79.216 232.016 C 80.894 232.006, 83.154 230.804, 85.134 228.869 C 90.251 223.867, 96.376 221.617, 105 221.573 C 113.603 221.528, 121 224.478, 121 227.953 C 121 229.937, 121.946 230.394, 128.250 231.458 C 131.745 232.048, 132 232.327, 132 235.577 C 132 237.978, 131.455 239.269, 130.250 239.725 C 125.828 241.398, 119.216 247.211, 117.736 250.727 C 113.646 260.446, 115.313 270.018, 121.426 271.915 C 130.331 274.678, 151 276.148, 151 274.019 C 151 273.458, 149.673 273, 148.051 273 C 138.619 273, 121.436 269.885, 119.750 267.870 C 115.656 262.976, 118.570 250.432, 124.706 246.536 C 126.470 245.416, 131.242 242.384, 135.312 239.797 C 139.767 236.966, 145.290 234.447, 149.190 233.468 C 158.830 231.046, 160.272 229.399, 164.488 216 C 169.241 200.891, 171.344 178.841, 168.700 171.829 C 166.421 165.789, 165.643 159.868, 166.433 154.597 C 167.078 150.295, 167.369 149.972, 173.213 147.051 C 180.352 143.484, 183.809 142.976, 180.139 146.033 C 177.230 148.457, 177.577 148.454, 187.459 145.964 C 192.573 144.676, 198.277 144.011, 203.417 144.104 C 208.573 144.198, 211.550 143.850, 211.792 143.125 C 212.261 141.716, 218.482 141.652, 221.055 143.030 C 223.283 144.222, 226 149.039, 226 151.797 C 226 153.648, 225.875 153.650, 220.750 151.879 C 217.863 150.881, 214.375 150.089, 213 150.119 L 210.500 150.172 213 150.935 C 217.440 152.291, 223.737 155.873, 227.133 158.975 C 228.955 160.639, 230.988 162, 231.650 162 C 232.313 162, 233.766 163.158, 234.880 164.574 C 235.993 165.990, 238.755 168.489, 241.018 170.128 C 245.442 173.333, 245.778 175.409, 241.912 175.651 C 240.585 175.735, 238.938 175.847, 238.250 175.901 C 237.563 175.956, 237 176.675, 237 177.500 C 237 180.286, 234.134 179.025, 229.630 174.258 C 227.166 171.650, 224.909 169.758, 224.615 170.052 C 224.320 170.347, 225.861 172.537, 228.040 174.920 C 230.218 177.303, 232.006 179.533, 232.014 179.876 C 232.021 180.219, 229.434 182.819, 226.264 185.653 C 218.862 192.271, 219.760 193.133, 228.248 187.558 C 234.516 183.440, 235.516 183.121, 245.537 182.042 L 256.173 180.897 265.337 184.053 C 277.416 188.212, 278.553 188.796, 280.059 191.610 C 280.762 192.925, 281.728 194, 282.204 194 C 285.021 194, 277.451 185.019, 274.576 184.951 C 271.859 184.886, 257.410 177.481, 258.591 176.759 C 259.091 176.453, 261.392 175.695, 263.705 175.075 C 266.017 174.455, 269.167 172.898, 270.705 171.614 C 276.743 166.575, 283.402 164.546, 289.061 166.023 C 302.123 169.430, 301.338 169.378, 305.760 167.123 C 308.371 165.790, 311.797 165, 314.960 165 C 318.235 165, 320 164.577, 320 163.790 C 320 163.125, 321.912 160.711, 324.250 158.425 C 330.717 152.101, 333.856 148.409, 335.111 145.655 C 336.393 142.841, 335.457 135.599, 333.933 136.541 C 333.402 136.870, 333.233 137.568, 333.558 138.093 C 336.502 142.857, 320.433 159.944, 311.500 161.551 C 309.300 161.947, 305.862 163.093, 303.861 164.099 C 300.266 165.905, 300.129 165.897, 292.585 163.433 C 283.220 160.374, 278.087 161.572, 266.307 169.566 C 258.506 174.861, 244.815 171.391, 237.671 162.309 C 236.655 161.017, 234.513 159.282, 232.912 158.454 C 229.942 156.918, 228.776 154.593, 231.500 155.638 C 233.548 156.424, 233.446 153.589, 231.352 151.495 C 228.786 148.928, 227.818 141.886, 229.737 139.750 C 232.583 136.584, 241.966 139.154, 250.500 145.438 C 254.459 148.353, 256.093 148.873, 258.500 147.985 C 259.600 147.579, 261.073 147.705, 261.773 148.265 C 262.532 148.872, 266.233 149.064, 270.943 148.741 L 278.840 148.200 279.541 153.350 C 280.235 158.451, 281.217 159.955, 283.872 159.985 C 284.968 159.997, 284.998 159.703, 284.022 158.527 C 282.722 156.960, 282.358 150.848, 283.459 149.066 C 283.821 148.480, 285.006 148, 286.090 148 C 288.739 148, 289.510 145.567, 288.207 141.322 C 286.076 134.380, 289.022 132.867, 306.500 131.923 C 313.650 131.537, 325.350 130.705, 332.500 130.075 C 342.282 129.214, 346.690 129.214, 350.308 130.079 C 355.656 131.356, 361 135.261, 361 137.892 C 361 138.835, 362.310 141.388, 363.911 143.565 C 367.575 148.547, 369.013 155.972, 367.810 163.706 C 366.749 170.531, 363.292 182.191, 362.102 182.961 C 360.758 183.831, 357 191.758, 357 193.725 C 357 197.326, 349.747 205.798, 345.081 207.649 C 342.650 208.612, 337.111 212.459, 332.771 216.197 C 328.431 219.935, 324.055 223.435, 323.046 223.975 C 320.098 225.553, 305.690 229.973, 303.449 229.987 C 301.138 230.002, 296.020 232.165, 296.008 233.133 C 296.004 233.482, 296.861 233.992, 297.914 234.267 C 300.320 234.897, 305 242.185, 305 245.303 C 305 248.504, 310.696 258.783, 312.797 259.373 C 313.733 259.636, 316.075 260.153, 318 260.524 C 319.925 260.894, 322.525 261.846, 323.778 262.640 C 325.031 263.434, 326.513 263.801, 327.072 263.455 C 327.631 263.110, 328.743 263.372, 329.544 264.036 C 330.715 265.008, 331 264.934, 331 263.658 C 331 260.932, 334.679 259.808, 341.319 260.503 C 344.816 260.869, 349.617 260.670, 352.376 260.043 C 356.428 259.122, 357.653 259.198, 359.626 260.491 C 361.762 261.890, 362 261.891, 362 260.502 C 362 257.499, 357.575 256.571, 350.037 257.993 C 344.311 259.074, 342.795 259.075, 341.502 258.002 C 340.230 256.946, 338.887 256.931, 334.464 257.921 C 329.505 259.031, 322.673 258.842, 314.848 257.380 C 312.066 256.860, 308 249.529, 308 245.031 C 308 243.878, 306.922 240.806, 305.604 238.205 L 303.208 233.476 311.354 231.072 C 323.182 227.579, 325.244 226.385, 339.301 214.882 C 341.060 213.442, 344.863 211.072, 347.750 209.615 C 350.637 208.158, 353 206.540, 353 206.018 C 353 205.496, 354.279 203.591, 355.842 201.785 C 357.405 199.978, 359.220 196.925, 359.876 195 C 360.532 193.075, 362.215 189.765, 363.618 187.645 C 366.061 183.951, 367.671 179.226, 370.103 168.620 C 370.889 165.190, 371.481 164.150, 372.095 165.120 C 372.704 166.080, 372.974 165.555, 372.985 163.392 C 373 160.346, 373.113 160.273, 378.788 159.680 C 381.972 159.347, 386.232 158.383, 388.256 157.537 C 390.280 156.692, 393.123 156, 394.574 156 C 396.024 156, 399.751 155.369, 402.856 154.599 C 405.960 153.828, 410.167 152.911, 412.204 152.562 L 415.908 151.927 419.923 159.213 C 422.131 163.221, 425.561 167.784, 427.545 169.353 C 429.528 170.922, 432.746 174.426, 434.696 177.139 C 436.645 179.853, 439.536 182.743, 441.120 183.562 C 443.387 184.735, 444.001 185.737, 444.006 188.276 C 444.020 196.470, 445.372 198.348, 454.668 203.085 C 464.360 208.023, 468.333 211.490, 473.431 219.459 C 475.346 222.454, 478.279 225.610, 479.947 226.473 C 481.615 227.335, 483.894 229.832, 485.011 232.021 C 486.127 234.209, 487.449 236, 487.949 236 C 490.733 236, 492 239.378, 492.010 246.821 C 492.019 254.445, 494.912 263.592, 497.897 265.436 C 498.530 265.827, 499 269.079, 499 273.059 L 499 280 250.004 279.996 L 1.007 279.992 0.750 143.246 L 0.493 6.500 0.246 143.752 M 0.486 144 C 0.486 219.625, 0.605 250.563, 0.750 212.750 C 0.895 174.938, 0.895 113.063, 0.750 75.250 C 0.605 37.438, 0.486 68.375, 0.486 144 M 72.149 133.750 C 70.940 136.047, 70.750 151.099, 71.908 152.904 C 72.750 154.217, 73.405 150.057, 74.254 138 C 74.542 133.905, 77.299 133.080, 77.843 136.927 C 78.031 138.261, 78.860 140.383, 79.685 141.642 C 80.510 142.901, 82.040 146.534, 83.086 149.715 L 84.988 155.500 84.591 149.987 C 84.372 146.954, 83.522 142.904, 82.702 140.987 C 81.882 139.069, 80.723 136.262, 80.127 134.750 C 78.828 131.456, 73.695 130.813, 72.149 133.750 M 78 209 C 76.900 210.100, 76 211.900, 76 213 C 76 214.653, 75.333 215, 72.155 215 C 69.580 215, 67.712 215.661, 66.500 217 C 65.505 218.100, 65.183 219, 65.786 219 C 66.389 219, 67.180 218.518, 67.545 217.928 C 67.913 217.332, 70.270 216.999, 72.849 217.178 C 77.465 217.498, 77.496 217.479, 78.422 213.750 L 79.353 210 84.926 210.003 C 96.462 210.010, 114.204 214.232, 115.271 217.225 C 116.018 219.318, 117.237 217.322, 116.544 215.140 C 114.755 209.501, 82.618 204.382, 78 209 M 189.671 217.767 C 187.639 220.536, 184.588 227.136, 182.391 233.517 C 178.636 244.422, 177.182 246.647, 170.471 251.766 C 167.641 253.924, 167.747 253.913, 172.704 251.522 C 178.898 248.536, 181.486 244.582, 185.483 232 C 186.968 227.325, 189.717 221.361, 191.592 218.748 C 195.228 213.678, 195.522 213, 194.085 213 C 193.582 213, 191.596 215.145, 189.671 217.767 M 204.099 234.815 C 202.840 237.167, 204.256 243.503, 206.813 246.962 C 208.541 249.298, 208.609 249.900, 207.402 252.202 C 205.673 255.502, 198.526 259, 193.513 259 C 191.392 259, 188.924 259.664, 188.028 260.474 C 186.086 262.232, 180.578 261.075, 175.174 257.774 C 172.521 256.154, 171.409 255.963, 169.674 256.828 C 167.302 258.012, 162.236 257.928, 160.250 256.673 C 159.549 256.229, 159 256.332, 159 256.906 C 159 258.608, 162.468 259.924, 168.645 260.568 C 175.831 261.316, 184 263.790, 184 265.219 C 184 265.800, 182.200 268.229, 180 270.616 C 177.800 273.003, 176.014 275.753, 176.032 276.728 C 176.062 278.407, 176.133 278.408, 177.383 276.763 C 178.108 275.807, 181.357 272.051, 184.601 268.416 L 190.500 261.806 195.781 262.238 C 199.081 262.508, 202.160 263.482, 203.990 264.835 C 208.350 268.058, 208.835 267.456, 205.035 263.536 L 201.678 260.073 204.089 259.143 C 209.199 257.171, 214.582 248.544, 211.452 247.343 C 209.320 246.525, 207 241.683, 207 238.050 C 207 235.062, 208.274 234.017, 209.500 236 C 210.407 237.468, 211.702 237.220, 212.382 235.448 C 212.709 234.594, 212.563 234.152, 212.058 234.464 C 211.552 234.777, 210.856 234.575, 210.510 234.016 C 209.470 232.333, 205.139 232.873, 204.099 234.815 M 213.674 246.406 C 213.378 247.179, 213.986 248.582, 215.026 249.524 C 216.066 250.465, 217.649 253.437, 218.542 256.127 C 220.422 261.787, 222.327 263.121, 230 264.156 C 233.025 264.564, 236.991 265.201, 238.814 265.571 C 242.580 266.338, 247.514 264.489, 255.500 259.319 C 261.222 255.615, 265.794 252.055, 264.872 252.022 C 263.131 251.961, 257.115 255.271, 254.178 257.908 C 249.822 261.817, 242.888 264.448, 239.284 263.560 C 237.753 263.183, 233.886 262.499, 230.692 262.039 C 224.638 261.169, 221 258.896, 221 255.985 C 221 255.047, 219.875 252.621, 218.500 250.595 C 217.125 248.569, 216 246.481, 216 245.956 C 216 244.489, 214.282 244.822, 213.674 246.406 M 297.855 251.814 C 295.322 253.291, 290.606 256.278, 287.375 258.452 C 281.175 262.623, 267.160 268.188, 258.095 270.079 C 255.123 270.699, 249.825 272.285, 246.323 273.603 C 242.820 274.921, 238.615 276, 236.977 276 C 235.340 276, 234 276.450, 234 277 C 234 278.441, 237.750 278.232, 244.032 276.442 C 247.039 275.584, 252.650 274.055, 256.500 273.043 C 273.587 268.551, 281.673 265.239, 291.796 258.585 C 301.343 252.311, 303.701 250.368, 302.831 249.497 C 302.628 249.294, 300.389 250.337, 297.855 251.814" stroke="none" fill="black" fill-rule="evenodd"/>
</svg>